<?xml version="1.0" standalone="no"?>
<!DOCTYPE svg PUBLIC "-//W3C//DTD SVG 20010904//EN"
 "http://www.w3.org/TR/2001/REC-SVG-20010904/DTD/svg10.dtd">
<svg version="1.0" xmlns="http://www.w3.org/2000/svg"
 width="512.000000pt" height="512.000000pt" viewBox="0 0 512.000000 512.000000"
 preserveAspectRatio="xMidYMid meet">

<g transform="translate(0.000000,512.000000) scale(0.100000,-0.100000)"
fill="#000000" stroke="none">
<path d="M2798 4611 c-44 -14 -84 -48 -102 -85 -13 -28 -16 -70 -16 -230 l0
-196 -532 0 c-498 0 -536 -2 -574 -19 -23 -10 -52 -34 -65 -52 l-24 -34 -3
-672 -2 -672 -290 -3 c-284 -3 -290 -3 -312 -25 -14 -15 -22 -35 -22 -58 0
-23 8 -43 22 -58 22 -22 28 -22 312 -25 l290 -3 2 -677 3 -677 23 -33 c50 -69
28 -67 630 -70 l542 -3 0 -195 c0 -224 6 -248 73 -292 30 -20 52 -26 91 -26
48 0 80 17 526 264 261 144 553 306 649 359 185 102 225 134 241 190 13 49 13
2433 0 2482 -16 56 -56 88 -241 190 -96 53 -386 214 -646 357 -476 264 -515
282 -575 263z m681 -510 l621 -345 0 -1197 0 -1197 -577 -317 c-318 -175 -602
-331 -630 -347 l-53 -30 0 1892 c0 1144 4 1890 9 1888 5 -1 289 -158 630 -347z
m-799 -1541 l0 -1370 -520 0 -520 0 0 645 0 645 332 0 c282 0 330 -2 318 -14
-8 -7 -91 -82 -185 -166 -93 -84 -176 -160 -182 -168 -7 -9 -13 -31 -13 -49 0
-57 63 -98 111 -72 13 6 130 109 261 227 238 215 288 272 288 329 0 54 -35 89
-507 515 -30 27 -52 38 -73 38 -43 0 -80 -39 -80 -84 0 -32 12 -46 173 -192
94 -86 181 -165 192 -175 19 -19 12 -19 -308 -19 l-327 0 0 640 0 640 520 0
520 0 0 -1370z"/>
</g>
</svg>
